<?xml version="1.0" encoding="UTF-8"?>
<svg version="1.1" viewBox="0 0 884 956" width="1280" height="1280" xmlns="http://www.w3.org/2000/svg">
<path transform="translate(0)" d="m0 0h884v956h-884z" fill="#FEFEFE"/>
<path transform="translate(417,177)" d="m0 0h37l31 3 22 4 28 7 29 10 24 11 23 12 16 10 16 11 13 10 14 12 15 14 12 12 7 8 13 16 11 16 12 19 13 24 9 20 8 21 7 23 6 28 3 20 3 36v19l-4 40-4 22-6 24-10 30-11 26-12 23-11 18-12 17-13 16-9 11-27 27-11 9-17 13-13 9-18 11-27 14-24 10-30 10-25 6-28 5-27 3h-28l-23-2-36-6-25-6-23-7-27-11-19-9-21-12-11-7-13-9-12-9-14-12-15-14-8-8-7-8-9-10-13-17-11-16-12-20-12-23-10-24-10-30-6-27-4-25-2-22v-44l4-35 6-29 7-24 8-22 9-20 10-20 14-23 10-14 10-13 12-14 12-13 12-12 11-9 9-8 19-14 22-14 14-8 28-13 28-10 24-7 23-5 29-4z" fill="#9F4995"/>
<path transform="translate(125,436)" d="m0 0h82l16 3 12 5 9 7 8 9 8 16 3 12v21l-3 14-7 14-10 11-12 7-12 4 7 8 22 28 13 16 7 9v2h-53l-5-4-14-20-13-18-10-14-3-1 1 5v51l-1 1h-43l-3-3v-182z" fill="#FEFEFE"/>
<path transform="translate(368,432)" d="m0 0h24l19 4 13 5 13 8 10 8 8 8 7 10 9 17 4 12v2l-3 1h-45l-4-2-4-8-9-11-11-7-9-3h-19l-10 3-10 6-8 7-5 8-5 14-1 4v19l2 10 7 14 10 11 11 6 10 3h16l12-4 9-6 7-7 5-7 2-5 4-1h47l1 3-8 19-8 14-11 12-8 7-13 8-14 6-17 4-8 1h-16l-20-4-16-6-12-7-10-8-9-9-9-13-6-12-4-11-3-16v-24l4-18 7-16 8-12 11-12 10-8 14-8 16-6z" fill="#FEFEFE"/>
<path transform="translate(575,436)" d="m0 0h22l1 1v133h15l1 1v15l-7 2h-9v33l-2 1h-16l-1-1-1-9v-24h-79l-13-1-1-5v-11l7-12 7-10 29-44 29-43 9-14 8-11z" fill="#FEFEFE"/>
<path transform="translate(686,432)" d="m0 0h11l14 3 14 7 10 9 7 10 6 15 1 5v16l-3 12-6 12-11 14-19 19-8 7-12 12-8 7-16 16-6 5h-2v3h90l1 4-1 13-1 1h-113l-4-2v-16l26-26 8-7 27-27 8-7 15-15 10-14 4-10 1-4v-12l-5-13-8-9-10-6-11-3h-8l-11 2-10 6-7 8-5 10-3 18-1 1h-18l-1-5 2-14 4-13 7-10 6-7 10-7 8-4z" fill="#FEFEFE"/>
<path transform="translate(576,465)" d="m0 0h2v105h-69l1-4 7-11 26-40 9-14 22-33z" fill="#9F4995"/>
<path transform="translate(171,478)" d="m0 0h24l12 4 7 7 4 10-1 11-5 10-9 6-6 2-10 1h-16z" fill="#9F4995"/>
</svg>
